<svg xmlns="http://www.w3.org/2000/svg" viewBox="0 0 94.16 120.73"><defs><style>.cls-1{fill:#fff;}</style></defs><g id="Layer_2" data-name="Layer 2"><g id="arrow"><path class="cls-1" d="M64.15,58.49a.41.41,0,0,1-.16,0,.51.51,0,0,1-.31-.3L43.76,4.28a2.41,2.41,0,0,1,.16-2A3.51,3.51,0,0,1,46.28.6a4.41,4.41,0,0,1,1-.1,3.6,3.6,0,0,1,3.5,2.09L69.87,54.36a.48.48,0,0,1-.19.59L64.42,58.4A.46.46,0,0,1,64.15,58.49Z"/><path class="cls-1" d="M47.24,1a3.14,3.14,0,0,1,3,1.76L69.41,54.53,64.15,58,44.23,4.11c-.48-1.3.49-2.65,2.16-3A4.09,4.09,0,0,1,47.24,1m0-1a4.81,4.81,0,0,0-1.07.12A4,4,0,0,0,43.48,2a2.94,2.94,0,0,0-.19,2.44L63.21,58.33a1,1,0,0,0,.62.61,1.19,1.19,0,0,0,.32.05,1,1,0,0,0,.55-.17L70,55.37a1,1,0,0,0,.39-1.18L51.21,2.42a4.1,4.1,0,0,0-4-2.42Z"/><path class="cls-1" d="M10.9,93.44a.51.51,0,0,1-.31-.11.5.5,0,0,1-.16-.56L43.76,2.59A3.65,3.65,0,0,1,47.26.5a4.5,4.5,0,0,1,1,.1,3.51,3.51,0,0,1,2.36,1.65,2.45,2.45,0,0,1,.15,2L20,87.45a.5.5,0,0,1-.19.24l-8.63,5.67A.57.57,0,0,1,10.9,93.44Z"/><path class="cls-1" d="M47.26,1a4.26,4.26,0,0,1,.86.09c1.67.37,2.63,1.72,2.15,3L19.53,87.28,10.9,92.94,44.23,2.76a3.16,3.16,0,0,1,3-1.76m0-1a4.1,4.1,0,0,0-4,2.42L10,92.59a1,1,0,0,0,.32,1.13,1,1,0,0,0,.62.22,1,1,0,0,0,.55-.16l8.63-5.67a1,1,0,0,0,.39-.49L51.21,4.45A2.94,2.94,0,0,0,51,2,4,4,0,0,0,48.33.12,4.81,4.81,0,0,0,47.26,0Z"/><path class="cls-1" d="M51.21,64.49a.4.4,0,0,1-.15,0,.48.48,0,0,1-.32-.3L45.6,50.25a.47.47,0,0,1,.06-.46.48.48,0,0,1,.41-.22H52a.5.5,0,0,1,.47.33l4,10.79a.49.49,0,0,1-.2.59l-4.75,3.13A.57.57,0,0,1,51.21,64.49Z"/><path class="cls-1" d="M52,50.07l4,10.8L51.21,64,46.07,50.07H52m0-1H46.07a1,1,0,0,0-.82.43,1,1,0,0,0-.12.92l5.14,13.92a1,1,0,0,0,.63.6,1.12,1.12,0,0,0,.31,0,1.07,1.07,0,0,0,.55-.16l4.76-3.13a1,1,0,0,0,.39-1.18l-4-10.79a1,1,0,0,0-.94-.66Z"/><path class="cls-1" d="M31.78,77.5a.51.51,0,0,1-.31-.11.48.48,0,0,1-.16-.56l10-26.93a.5.5,0,0,1,.47-.33h5.91a.48.48,0,0,1,.41.22.47.47,0,0,1,.06.46l-8,21.8a.52.52,0,0,1-.2.24l-7.81,5.13A.53.53,0,0,1,31.78,77.5Z"/><path class="cls-1" d="M47.64,50.07l-8,21.8L31.78,77l9.95-26.93h5.91m0-1H41.73a1,1,0,0,0-.94.66L30.84,76.65a1,1,0,0,0,.32,1.13,1,1,0,0,0,.62.22,1,1,0,0,0,.55-.16l7.81-5.13a1,1,0,0,0,.38-.49l8.06-21.8a1,1,0,0,0-.94-1.35Z"/><path class="cls-1" d="M86.62,119.29a.5.5,0,0,1-.47-.33L66.53,65.87a.5.5,0,0,1,.19-.6L72,61.82a.53.53,0,0,1,.27-.08l.16,0a.48.48,0,0,1,.31.31l20.9,56.55a.5.5,0,0,1-.05.46.52.52,0,0,1-.41.21Z"/><path class="cls-1" d="M72.25,62.24l20.91,56.55H86.62L67,65.69l5.26-3.45m0-1a1,1,0,0,0-.54.16l-5.26,3.46A1,1,0,0,0,66.06,66l19.62,53.1a1,1,0,0,0,.94.65h6.54a1,1,0,0,0,.93-1.35L73.19,61.89a1,1,0,0,0-.62-.6,1.19,1.19,0,0,0-.32,0Z"/><path class="cls-1" d="M69.36,113.6a.5.5,0,0,1-.46-.32L53.32,71.14a.5.5,0,0,1,.19-.59l4.76-3.13a.57.57,0,0,1,.28-.08l.15,0a.53.53,0,0,1,.32.3l16.65,45.07a1.66,1.66,0,0,1,.06.21.65.65,0,0,1-.1.45.54.54,0,0,1-.38.21Z"/><path class="cls-1" d="M58.55,67.84,75.2,112.9a1.94,1.94,0,0,1,0,.2H69.36L53.79,71l4.76-3.12m0-1A1,1,0,0,0,58,67l-4.76,3.13a1,1,0,0,0-.39,1.18l15.58,42.14a1,1,0,0,0,.93.65h5.89a1,1,0,0,0,.79-.38,1,1,0,0,0,.18-.85,1.5,1.5,0,0,0-.08-.32L59.49,67.49a1,1,0,0,0-.63-.6,1.12,1.12,0,0,0-.31,0Z"/><path class="cls-1" d="M1,120.23a.5.5,0,0,1-.47-.67l5.23-14.15a.5.5,0,0,1,.19-.24l8.63-5.67a.57.57,0,0,1,.28-.08.51.51,0,0,1,.31.11.5.5,0,0,1,.16.56L8,119.9a.48.48,0,0,1-.46.33Z"/><path class="cls-1" d="M14.86,99.92,7.54,119.73H1l5.23-14.15,8.63-5.66m0-1a1,1,0,0,0-.55.16l-8.63,5.67a1,1,0,0,0-.39.49L.06,119.38A1,1,0,0,0,1,120.73H7.54a1,1,0,0,0,.93-.65l7.33-19.81a1,1,0,0,0-.32-1.13,1,1,0,0,0-.62-.22Z"/></g></g></svg>