<svg xmlns="http://www.w3.org/2000/svg" xmlns:xlink="http://www.w3.org/1999/xlink" viewBox="0 0 204.98 206.8"><defs><style>.cls-1{fill:#323232;}.cls-2{fill:url(#radial-gradient);}.cls-3,.cls-4{fill:#fff;}.cls-4{stroke:#fff;stroke-linecap:round;stroke-linejoin:round;stroke-width:4px;}</style><radialGradient id="radial-gradient" cx="102.49" cy="103.4" r="102.95" gradientTransform="translate(0 -122.99) scale(1 2.19)" gradientUnits="userSpaceOnUse"><stop offset="0" stop-color="#fff"/><stop offset="1"/></radialGradient></defs><g id="Layer_2" data-name="Layer 2"><g id="arrow"><path class="cls-1" d="M102.49,206.8h0C45.89,206.8,0,160.5,0,103.4H0C0,46.29,45.89,0,102.49,0h0C159.1,0,205,46.29,205,103.4h0C205,160.5,159.1,206.8,102.49,206.8Z"/><path class="cls-2" d="M102.49,1C158.45,1,204,46.94,204,103.4S158.45,205.8,102.49,205.8,1,159.86,1,103.4,46.53,1,102.49,1m0-1h0C45.89,0,0,46.29,0,103.4H0c0,57.1,45.89,103.4,102.49,103.4h0C159.1,206.8,205,160.5,205,103.4h0C205,46.29,159.1,0,102.49,0Z"/><path class="cls-3" d="M95.91,95.64a.4.4,0,0,1-.15,0,.5.5,0,0,1-.32-.3L75.53,41.43a2.45,2.45,0,0,1,.15-2A3.49,3.49,0,0,1,78,37.76a4.58,4.58,0,0,1,1-.11,3.61,3.61,0,0,1,3.5,2.09l19.13,51.77a.5.5,0,0,1-.19.59l-5.26,3.46A.54.54,0,0,1,95.91,95.64Z"/><path class="cls-3" d="M79,38.15a3.14,3.14,0,0,1,3,1.77l19.13,51.76-5.26,3.46L76,41.26c-.48-1.3.48-2.64,2.15-3a4.26,4.26,0,0,1,.86-.09m0-1a4.81,4.81,0,0,0-1.07.12,4,4,0,0,0-2.69,1.89,2.91,2.91,0,0,0-.19,2.44L95,95.48a1,1,0,0,0,.62.61,1.12,1.12,0,0,0,.31,0,1,1,0,0,0,.55-.17l5.26-3.45a1,1,0,0,0,.39-1.18L83,39.57a4.1,4.1,0,0,0-4-2.42Z"/><path class="cls-3" d="M42.67,130.59a.45.45,0,0,1-.31-.11.48.48,0,0,1-.16-.56L75.53,39.74A3.65,3.65,0,0,1,79,37.65a4.42,4.42,0,0,1,1,.11,3.47,3.47,0,0,1,2.36,1.64,2.41,2.41,0,0,1,.16,2L51.77,124.6a.48.48,0,0,1-.2.24l-8.63,5.67A.53.53,0,0,1,42.67,130.59Z"/><path class="cls-3" d="M79,38.15a4.09,4.09,0,0,1,.85.09c1.67.38,2.64,1.72,2.16,3L51.3,124.43l-8.63,5.66L76,39.92a3.13,3.13,0,0,1,3-1.77m0-1a4.1,4.1,0,0,0-4,2.42L41.73,129.75a1,1,0,0,0,.32,1.12,1,1,0,0,0,.62.22,1,1,0,0,0,.55-.16l8.63-5.67a1,1,0,0,0,.39-.49L83,41.6a2.91,2.91,0,0,0-.19-2.44,4,4,0,0,0-2.69-1.89A4.81,4.81,0,0,0,79,37.15Z"/><path class="cls-3" d="M83,101.64l-.16,0a.51.51,0,0,1-.31-.3L77.37,87.4a.5.5,0,0,1,0-.46.52.52,0,0,1,.41-.21h5.92a.51.51,0,0,1,.47.32l4,10.79a.51.51,0,0,1-.2.6l-4.76,3.12A.53.53,0,0,1,83,101.64Z"/><path class="cls-3" d="M83.75,87.23l4,10.79L83,101.14,77.83,87.23h5.92m0-1H77.83a1,1,0,0,0-.82.42,1,1,0,0,0-.11.92L82,101.49a1,1,0,0,0,.63.6.81.81,0,0,0,.31,0,1,1,0,0,0,.55-.16l4.76-3.13a1,1,0,0,0,.39-1.18l-4-10.79a1,1,0,0,0-.94-.65Z"/><path class="cls-3" d="M63.54,114.65a.45.45,0,0,1-.31-.11.48.48,0,0,1-.15-.56L73,87.05a.5.5,0,0,1,.47-.32h5.91a.51.51,0,0,1,.41.21.47.47,0,0,1,.06.46l-8.06,21.8a.41.41,0,0,1-.19.24l-7.81,5.13A.46.46,0,0,1,63.54,114.65Z"/><path class="cls-3" d="M79.41,87.23,71.35,109l-7.81,5.12,10-26.92h5.91m0-1H73.5a1,1,0,0,0-.94.65l-10,26.93a1,1,0,0,0,.31,1.13,1,1,0,0,0,.62.21,1,1,0,0,0,.55-.16l7.81-5.13a1,1,0,0,0,.39-.49l8.06-21.8a1,1,0,0,0-.94-1.34Z"/><path class="cls-3" d="M118.39,156.44a.5.5,0,0,1-.47-.33L98.29,103a.49.49,0,0,1,.2-.59L103.75,99a.53.53,0,0,1,.27-.08.45.45,0,0,1,.16,0,.46.46,0,0,1,.31.3l20.9,56.55a.48.48,0,0,1-.06.46.49.49,0,0,1-.41.21Z"/><path class="cls-3" d="M104,99.39l20.9,56.55h-6.53l-19.63-53.1L104,99.39m0-1a1.1,1.1,0,0,0-.55.16L98.21,102a1,1,0,0,0-.39,1.18l19.63,53.1a1,1,0,0,0,.94.65h6.53a1,1,0,0,0,.82-.43,1,1,0,0,0,.12-.92L105,99a1,1,0,0,0-.63-.6,1.06,1.06,0,0,0-.31,0Z"/><path class="cls-3" d="M101.13,150.75a.51.51,0,0,1-.47-.32L85.09,108.29a.5.5,0,0,1,.19-.59L90,104.57a.53.53,0,0,1,.27-.08.41.41,0,0,1,.16,0,.45.45,0,0,1,.31.3l16.66,45.06a.8.8,0,0,1,0,.21.56.56,0,0,1-.1.45.51.51,0,0,1-.37.21Z"/><path class="cls-3" d="M90.31,105,107,150.05a1.94,1.94,0,0,1,0,.2h-5.89L85.56,108.11,90.31,105m0-1a1,1,0,0,0-.54.16L85,107.28a1,1,0,0,0-.39,1.18l15.57,42.14a1,1,0,0,0,.94.65H107a1,1,0,0,0,1-1.23,2.49,2.49,0,0,0-.08-.32L91.25,104.64a1,1,0,0,0-.62-.6,1.13,1.13,0,0,0-.32-.05Z"/><path class="cls-3" d="M32.77,157.38a.49.49,0,0,1-.41-.21.48.48,0,0,1-.06-.46l5.23-14.15a.45.45,0,0,1,.19-.24l8.63-5.67a.53.53,0,0,1,.27-.08.52.52,0,0,1,.32.11.48.48,0,0,1,.15.56l-7.32,19.82a.5.5,0,0,1-.47.32Z"/><path class="cls-3" d="M46.62,137.07,39.3,156.88H32.77L38,142.74l8.62-5.67m0-1a1,1,0,0,0-.54.16l-8.63,5.67a1,1,0,0,0-.39.49l-5.23,14.15a1,1,0,0,0,.94,1.34H39.3a1,1,0,0,0,.94-.65l7.32-19.81a1,1,0,0,0-.31-1.13,1,1,0,0,0-.63-.22Z"/><line class="cls-4" x1="151.93" y1="155.74" x2="152.93" y2="37.88"/></g></g></svg>