<svg xmlns="http://www.w3.org/2000/svg" xmlns:xlink="http://www.w3.org/1999/xlink" viewBox="0 0 156.12 157.5"><defs><style>.cls-1{fill:#323232;}.cls-2{fill:url(#radial-gradient);}.cls-3{fill:#fff;}</style><radialGradient id="radial-gradient" cx="78.06" cy="78.75" r="78.41" gradientTransform="translate(0 -93.67) scale(1 2.19)" gradientUnits="userSpaceOnUse"><stop offset="0" stop-color="#fff"/><stop offset="1"/></radialGradient></defs><g id="Layer_2" data-name="Layer 2"><g id="arrow"><path class="cls-1" d="M78.06,157.5h0C35,157.5,0,122.24,0,78.75H0C0,35.26,35,0,78.06,0h0c43.11,0,78.06,35.26,78.06,78.75h0C156.12,122.24,121.17,157.5,78.06,157.5Z"/><path class="cls-2" d="M78.06,1c42.49,0,77.06,34.88,77.06,77.75S120.55,156.5,78.06,156.5,1,121.62,1,78.75,35.57,1,78.06,1m0-1h0C35,0,0,35.26,0,78.75H0c0,43.49,35,78.75,78.06,78.75h0c43.11,0,78.06-35.26,78.06-78.75h0C156.12,35.26,121.17,0,78.06,0Z"/><path class="cls-3" d="M96.48,71a.4.4,0,0,1-.15,0,.48.48,0,0,1-.32-.3L76.1,16.78a2.41,2.41,0,0,1,.15-2,3.47,3.47,0,0,1,2.36-1.64,4.51,4.51,0,0,1,1-.11,3.61,3.61,0,0,1,3.5,2.09l19.13,51.77a.5.5,0,0,1-.19.59l-5.26,3.46A.57.57,0,0,1,96.48,71Z"/><path class="cls-3" d="M79.58,13.5a3.17,3.17,0,0,1,3,1.77L101.74,67l-5.26,3.45L76.57,16.61c-.48-1.29.48-2.64,2.15-3a3.61,3.61,0,0,1,.86-.1m0-1a4.81,4.81,0,0,0-1.07.12,4,4,0,0,0-2.7,1.89A3,3,0,0,0,75.63,17L95.54,70.84a1,1,0,0,0,.63.6,1.12,1.12,0,0,0,.31,0,1,1,0,0,0,.55-.17l5.26-3.45a1,1,0,0,0,.39-1.18L83.54,14.92a4.1,4.1,0,0,0-4-2.42Z"/><path class="cls-3" d="M43.24,105.94a.45.45,0,0,1-.31-.11.48.48,0,0,1-.16-.56L76.1,15.09A3.65,3.65,0,0,1,79.6,13a4.42,4.42,0,0,1,1,.11,3.47,3.47,0,0,1,2.36,1.64,2.45,2.45,0,0,1,.16,2L52.33,100a.47.47,0,0,1-.19.25l-8.63,5.66A.45.45,0,0,1,43.24,105.94Z"/><path class="cls-3" d="M79.6,13.5a3.53,3.53,0,0,1,.85.1c1.67.37,2.64,1.72,2.16,3L51.87,99.78l-8.63,5.66L76.57,15.27a3.15,3.15,0,0,1,3-1.77m0-1a4.11,4.11,0,0,0-4,2.42L42.3,105.1a1,1,0,0,0,.31,1.13,1.06,1.06,0,0,0,.63.21,1,1,0,0,0,.55-.16l8.62-5.67a.91.91,0,0,0,.39-.49L83.54,17a2.93,2.93,0,0,0-.18-2.45,4,4,0,0,0-2.69-1.89,4.81,4.81,0,0,0-1.07-.12Z"/><path class="cls-3" d="M83.55,77a.41.41,0,0,1-.16,0,.51.51,0,0,1-.31-.3L77.93,62.75a.54.54,0,0,1,.06-.46.52.52,0,0,1,.41-.21h5.92a.51.51,0,0,1,.47.32l4,10.8a.51.51,0,0,1-.19.59l-4.76,3.12A.53.53,0,0,1,83.55,77Z"/><path class="cls-3" d="M84.32,62.58l4,10.79-4.76,3.12L78.4,62.58h5.92m0-1H78.4a1,1,0,0,0-.82.43,1,1,0,0,0-.12.91l5.15,13.92a1,1,0,0,0,.62.6.89.89,0,0,0,.32,0,1,1,0,0,0,.55-.16l4.75-3.12A1,1,0,0,0,89.24,73l-4-10.79a1,1,0,0,0-.93-.65Z"/><path class="cls-3" d="M64.11,90a.5.5,0,0,1-.31-.1.52.52,0,0,1-.16-.57l10-26.93a.5.5,0,0,1,.47-.32H80a.51.51,0,0,1,.41.21.54.54,0,0,1,.06.46l-8.06,21.8a.53.53,0,0,1-.19.25l-7.81,5.12A.48.48,0,0,1,64.11,90Z"/><path class="cls-3" d="M80,62.58l-8.06,21.8L64.11,89.5l10-26.92H80m0-1H74.07a1,1,0,0,0-.94.65l-10,26.93a1,1,0,0,0,1.49,1.18l7.81-5.13a.91.91,0,0,0,.39-.49l8.06-21.8A1,1,0,0,0,80.8,62a1,1,0,0,0-.82-.43Z"/><path class="cls-3" d="M119,131.79a.5.5,0,0,1-.47-.32L98.86,78.37a.5.5,0,0,1,.2-.59l5.25-3.46a.57.57,0,0,1,.28-.08l.16,0a.49.49,0,0,1,.31.3L126,131.12a.5.5,0,0,1-.47.67Z"/><path class="cls-3" d="M104.59,74.74l20.9,56.55H119L99.33,78.19l5.26-3.45m0-1a1,1,0,0,0-.55.17l-5.26,3.45a1,1,0,0,0-.39,1.18L118,131.64a1,1,0,0,0,.94.65h6.53a1,1,0,0,0,.82-.43,1,1,0,0,0,.12-.91L105.53,74.4a1,1,0,0,0-.63-.61,1.12,1.12,0,0,0-.31-.05Z"/><path class="cls-3" d="M101.7,126.11a.5.5,0,0,1-.47-.33L85.65,83.64a.5.5,0,0,1,.2-.59l4.76-3.13a.53.53,0,0,1,.27-.08.41.41,0,0,1,.16,0,.49.49,0,0,1,.31.3L108,125.23a1.6,1.6,0,0,1,0,.21.56.56,0,0,1-.1.45.54.54,0,0,1-.37.22Z"/><path class="cls-3" d="M90.88,80.34l16.66,45.06c0,.07,0,.14,0,.21H101.7L86.12,83.47l4.76-3.13m0-1a1,1,0,0,0-.55.17l-4.76,3.12a1,1,0,0,0-.38,1.18L100.76,126a1,1,0,0,0,.94.66h5.89a1,1,0,0,0,.78-.39,1,1,0,0,0,.19-.85c0-.12,0-.22-.08-.32L91.82,80a1,1,0,0,0-.62-.61,1.19,1.19,0,0,0-.32,0Z"/><path class="cls-3" d="M33.33,132.73a.52.52,0,0,1-.41-.21.5.5,0,0,1-.05-.46l5.22-14.15a.52.52,0,0,1,.2-.24L46.92,112a.53.53,0,0,1,.27-.08.51.51,0,0,1,.31.11.5.5,0,0,1,.16.57l-7.32,19.81a.5.5,0,0,1-.47.32Z"/><path class="cls-3" d="M47.19,112.42l-7.32,19.81H33.33l5.23-14.14,8.63-5.67m0-1a1,1,0,0,0-.55.17L38,117.25a1,1,0,0,0-.38.49L32.4,131.89a1,1,0,0,0,.11.92,1,1,0,0,0,.82.42h6.54a1,1,0,0,0,.94-.65l7.32-19.81a1,1,0,0,0-.31-1.13,1.07,1.07,0,0,0-.63-.22Z"/></g></g></svg>