<svg xmlns="http://www.w3.org/2000/svg" viewBox="0 0 434.23 122"><defs><style>.cls-1,.cls-2,.cls-3{fill:#fff;}.cls-1,.cls-3{stroke:#fff;}.cls-1{stroke-miterlimit:10;}.cls-3{stroke-linecap:round;stroke-linejoin:round;stroke-width:4px;}</style></defs><g id="Layer_2" data-name="Layer 2"><g id="arrow"><path class="cls-1" d="M195.28,87.31A85.5,85.5,0,0,0,195.87,98h-10a20,20,0,0,1-.65-4.73c-1.55,2.6-4.68,5.75-12.61,5.75-10.4,0-14.8-6.82-14.8-13.51,0-9.84,7.83-14.36,20.63-14.36H185v-3c0-3.34-1.15-6.93-7.59-6.93-5.81,0-7,2.65-7.59,5.88h-10c.62-7.14,5-13.62,18-13.56,11.3.06,17.48,4.53,17.48,14.72ZM185,77.7h-5.61c-7.73,0-11.07,2.27-11.07,7.11,0,3.61,2.32,6.48,7,6.48,8.59,0,9.69-5.9,9.69-12.37Z"/><path class="cls-1" d="M213.23,85.1c1,3.9,4.08,6.13,9,6.13s7-2,7-5.06c0-3.22-1.91-4.58-8.83-6.27-13.57-3.33-16-7.52-16-13.57,0-6.31,4.52-12.85,17-12.85s17,7,17.46,12.9h-10C228.4,64.37,227,61,221,61c-4.69,0-6.15,2.16-6.15,4.41,0,2.53,1.49,3.76,8.85,5.5,14,3.29,16.3,8.06,16.3,14.46C240,92.75,234.32,99,221.89,99s-18-6.14-19-13.87Z"/><path class="cls-1" d="M258.46,36.12V60.06c2-3.16,5.68-6.58,12.83-6.58,7.71,0,14.57,4.47,14.57,16.64V98H275.42V71.74c0-6.24-2.38-9.61-7.86-9.61-7.06,0-9.1,5-9.1,12.53V98H248V36.12Z"/><path class="cls-1" d="M307.82,36.12V60.06c2-3.16,5.68-6.58,12.82-6.58,7.72,0,14.58,4.47,14.58,16.64V98H324.78V71.74c0-6.24-2.38-9.61-7.86-9.61-7.06,0-9.1,5-9.1,12.53V98h-10.5V36.12Z"/><path class="cls-1" d="M381,87.31A87.56,87.56,0,0,0,381.56,98h-10a19.56,19.56,0,0,1-.64-4.73c-1.56,2.6-4.69,5.75-12.62,5.75-10.4,0-14.8-6.82-14.8-13.51,0-9.84,7.83-14.36,20.63-14.36h6.61v-3c0-3.34-1.15-6.93-7.59-6.93-5.81,0-7,2.65-7.59,5.88h-10c.62-7.14,5-13.62,18-13.56C374.79,53.54,381,58,381,68.2ZM370.72,77.7h-5.61C357.38,77.7,354,80,354,84.81c0,3.61,2.32,6.48,7,6.48,8.59,0,9.68-5.9,9.68-12.37Z"/><path class="cls-1" d="M392.57,36.12h10.51V59.64c1.85-3.1,5.58-6.16,12.91-6.16,11.51,0,17.74,9.51,17.74,21.93,0,12.71-6.47,23.56-18.9,23.56-6.62,0-9.73-2.16-11.87-5.68a27.88,27.88,0,0,1-.41,4.66H392.49c.08-4.76.08-9.57.08-14.33ZM423,75.62c0-8-3.23-13.6-10.07-13.6-7.66,0-10.37,5-10.37,14.41,0,7.9,2.41,14.06,10.16,14.06C419.39,90.49,423,84.63,423,75.62Z"/><path class="cls-2" d="M64.15,59.75a.41.41,0,0,1-.16,0,.51.51,0,0,1-.31-.3L43.76,5.55a2.41,2.41,0,0,1,.16-2,3.51,3.51,0,0,1,2.36-1.65,4.41,4.41,0,0,1,1-.1,3.6,3.6,0,0,1,3.5,2.09L69.87,55.63a.48.48,0,0,1-.19.59l-5.26,3.45A.45.45,0,0,1,64.15,59.75Z"/><path class="cls-2" d="M47.24,2.27a3.14,3.14,0,0,1,3,1.76L69.41,55.8l-5.26,3.45L44.23,5.37c-.48-1.29.49-2.64,2.16-3a4.09,4.09,0,0,1,.85-.09m0-1a4.81,4.81,0,0,0-1.07.12,4,4,0,0,0-2.69,1.89,2.94,2.94,0,0,0-.19,2.44L63.21,59.6a1,1,0,0,0,.62.6.91.91,0,0,0,.32.06,1,1,0,0,0,.55-.17L70,56.64a1,1,0,0,0,.39-1.18L51.21,3.69a4.1,4.1,0,0,0-4-2.42Z"/><path class="cls-2" d="M10.9,94.71a.51.51,0,0,1-.31-.11.5.5,0,0,1-.16-.56L43.76,3.86a3.66,3.66,0,0,1,3.5-2.09,4.5,4.5,0,0,1,1,.1,3.51,3.51,0,0,1,2.36,1.65,2.45,2.45,0,0,1,.15,2L20,88.72a.57.57,0,0,1-.19.24l-8.63,5.67A.57.57,0,0,1,10.9,94.71Z"/><path class="cls-2" d="M47.26,2.27a4.26,4.26,0,0,1,.86.09c1.67.37,2.63,1.72,2.15,3L19.53,88.54,10.9,94.21,44.23,4a3.16,3.16,0,0,1,3-1.76m0-1a4.1,4.1,0,0,0-4,2.42L10,93.86A1,1,0,0,0,10.28,95a1,1,0,0,0,.62.22,1,1,0,0,0,.55-.16l8.63-5.67a1,1,0,0,0,.39-.49L51.21,5.72A2.94,2.94,0,0,0,51,3.28a4,4,0,0,0-2.7-1.89,4.81,4.81,0,0,0-1.07-.12Z"/><path class="cls-2" d="M51.21,65.76a.4.4,0,0,1-.15,0,.48.48,0,0,1-.32-.3L45.6,51.52a.47.47,0,0,1,.06-.46.48.48,0,0,1,.41-.22H52a.5.5,0,0,1,.47.33l4,10.79a.5.5,0,0,1-.19.59l-4.76,3.13A.57.57,0,0,1,51.21,65.76Z"/><path class="cls-2" d="M52,51.34l4,10.8-4.76,3.12L46.07,51.34H52m0-1H46.07a1,1,0,0,0-.82.43,1,1,0,0,0-.12.92l5.14,13.92a1,1,0,0,0,.63.6,1.12,1.12,0,0,0,.31.05,1.07,1.07,0,0,0,.55-.16L56.52,63a1,1,0,0,0,.39-1.18L52.92,51a1,1,0,0,0-.94-.66Z"/><path class="cls-2" d="M31.78,78.77a.51.51,0,0,1-.31-.11.48.48,0,0,1-.16-.56l10-26.93a.5.5,0,0,1,.47-.33h5.91a.48.48,0,0,1,.41.22.47.47,0,0,1,.06.46l-8,21.8a.52.52,0,0,1-.2.24l-7.81,5.13A.53.53,0,0,1,31.78,78.77Z"/><path class="cls-2" d="M47.64,51.34l-8,21.8-7.81,5.13,9.95-26.93h5.91m0-1H41.73a1,1,0,0,0-.94.66L30.84,77.92a1,1,0,0,0,.32,1.13,1,1,0,0,0,.62.22,1,1,0,0,0,.55-.16L40.14,74a1,1,0,0,0,.38-.49l8.06-21.8a1,1,0,0,0-.94-1.35Z"/><path class="cls-2" d="M86.62,120.56a.5.5,0,0,1-.47-.33L66.53,67.13a.51.51,0,0,1,.19-.59L72,63.09a.53.53,0,0,1,.27-.08l.16,0a.49.49,0,0,1,.31.3l20.9,56.56a.48.48,0,0,1-.05.45.5.5,0,0,1-.41.22Z"/><path class="cls-2" d="M72.25,63.51l20.91,56.55H86.62L67,67l5.26-3.45m0-1a1,1,0,0,0-.54.16l-5.26,3.46a1,1,0,0,0-.39,1.18l19.62,53.1a1,1,0,0,0,.94.65h6.54a1,1,0,0,0,.93-1.35L73.19,63.16a1,1,0,0,0-.62-.6.89.89,0,0,0-.32-.05Z"/><path class="cls-2" d="M69.36,114.87a.5.5,0,0,1-.46-.32L53.32,72.41a.52.52,0,0,1,.19-.6l4.76-3.12a.57.57,0,0,1,.28-.08l.15,0a.52.52,0,0,1,.32.31L75.67,114a1.66,1.66,0,0,1,.06.21.65.65,0,0,1-.1.45.54.54,0,0,1-.38.21Z"/><path class="cls-2" d="M58.55,69.11,75.2,114.17a1.46,1.46,0,0,1,0,.2H69.36L53.79,72.23l4.76-3.12m0-1a1,1,0,0,0-.55.16L53.24,71.4a1,1,0,0,0-.39,1.18l15.58,42.14a1,1,0,0,0,.93.65h5.89a1,1,0,0,0,1-1.23,1.5,1.5,0,0,0-.08-.32L59.49,68.76a1,1,0,0,0-.63-.6.84.84,0,0,0-.31,0Z"/><path class="cls-2" d="M1,121.5a.5.5,0,0,1-.47-.67l5.23-14.15a.46.46,0,0,1,.19-.24l8.63-5.67a.57.57,0,0,1,.28-.08.51.51,0,0,1,.31.11.5.5,0,0,1,.16.56L8,121.17a.48.48,0,0,1-.46.33Z"/><path class="cls-2" d="M14.86,101.19,7.54,121H1l5.23-14.15,8.63-5.66m0-1a1,1,0,0,0-.55.16L5.68,106a1,1,0,0,0-.39.49L.06,120.65A1,1,0,0,0,1,122H7.54a1,1,0,0,0,.93-.65l7.33-19.81a1,1,0,0,0-.32-1.13,1,1,0,0,0-.62-.22Z"/><line class="cls-3" x1="120.16" y1="119.86" x2="121.16" y2="2"/></g></g></svg>