<svg xmlns="http://www.w3.org/2000/svg" xmlns:xlink="http://www.w3.org/1999/xlink" viewBox="0 0 510 235"><defs><style>.cls-1{fill:#323232;}.cls-2{fill:url(#radial-gradient);}.cls-3,.cls-4,.cls-5{fill:#fff;}.cls-3,.cls-5{stroke:#fff;}.cls-3{stroke-miterlimit:10;}.cls-5{stroke-linecap:round;stroke-linejoin:round;stroke-width:4px;}</style><radialGradient id="radial-gradient" cx="255" cy="117.5" r="198.53" gradientUnits="userSpaceOnUse"><stop offset="0" stop-color="#fff"/><stop offset="1"/></radialGradient></defs><g id="Layer_2" data-name="Layer 2"><g id="arrow"><rect class="cls-1" width="510" height="235"/><path class="cls-2" d="M509,1V234H1V1H509m1-1H0V235H510V0Z"/><path class="cls-3" d="M228.12,138.31a87.56,87.56,0,0,0,.59,10.64h-10a19.56,19.56,0,0,1-.64-4.73c-1.56,2.6-4.68,5.75-12.62,5.75-10.4,0-14.8-6.82-14.8-13.51,0-9.84,7.84-14.36,20.63-14.36h6.61v-3c0-3.34-1.15-6.93-7.58-6.93-5.81,0-7,2.65-7.6,5.88h-10c.63-7.14,5-13.62,18-13.56,11.29.06,17.47,4.53,17.47,14.72Zm-10.24-9.61h-5.62c-7.72,0-11.07,2.27-11.07,7.11,0,3.61,2.33,6.48,7,6.48,8.59,0,9.69-5.9,9.69-12.37Z"/><path class="cls-3" d="M246.08,136.1c1,3.9,4.08,6.13,9,6.13s7-2,7-5.06-1.91-4.58-8.82-6.27c-13.57-3.33-16-7.52-16-13.57,0-6.31,4.51-12.85,17-12.85s17,7,17.45,12.9h-10c-.46-2-1.89-5.34-7.89-5.34-4.69,0-6.15,2.16-6.15,4.41,0,2.53,1.5,3.76,8.86,5.5,14.05,3.29,16.3,8.06,16.3,14.46,0,7.34-5.67,13.56-18.1,13.56s-18-6.14-19-13.87Z"/><path class="cls-3" d="M291.31,87.12v23.94c2-3.16,5.68-6.58,12.82-6.58,7.72,0,14.58,4.47,14.58,16.64V149H308.26V122.74c0-6.24-2.38-9.61-7.85-9.61-7.07,0-9.1,5-9.1,12.53V149H280.8V87.12Z"/><path class="cls-3" d="M340.67,87.12v23.94c2-3.16,5.68-6.58,12.82-6.58,7.72,0,14.58,4.47,14.58,16.64V149H357.62V122.74c0-6.24-2.38-9.61-7.86-9.61-7.06,0-9.09,5-9.09,12.53V149H330.16V87.12Z"/><path class="cls-3" d="M413.81,138.31A87.56,87.56,0,0,0,414.4,149h-10a19.56,19.56,0,0,1-.64-4.73c-1.56,2.6-4.68,5.75-12.62,5.75-10.39,0-14.8-6.82-14.8-13.51,0-9.84,7.84-14.36,20.63-14.36h6.61v-3c0-3.34-1.15-6.93-7.58-6.93-5.81,0-7,2.65-7.6,5.88h-10c.63-7.14,5-13.62,18-13.56,11.29.06,17.47,4.53,17.47,14.72Zm-10.24-9.61H398c-7.72,0-11.07,2.27-11.07,7.11,0,3.61,2.33,6.48,7,6.48,8.59,0,9.69-5.9,9.69-12.37Z"/><path class="cls-3" d="M425.42,87.12h10.5v23.52c1.85-3.1,5.58-6.16,12.91-6.16,11.52,0,17.75,9.51,17.75,21.93,0,12.71-6.48,23.56-18.9,23.56-6.63,0-9.74-2.16-11.88-5.68a29.11,29.11,0,0,1-.4,4.66H425.33c.09-4.76.09-9.57.09-14.33Zm30.45,39.5c0-8-3.22-13.6-10.07-13.6-7.66,0-10.37,5-10.37,14.41,0,7.9,2.41,14.06,10.16,14.06C452.23,141.49,455.87,135.63,455.87,126.62Z"/><path class="cls-4" d="M97,110.75a.44.44,0,0,1-.16,0,.51.51,0,0,1-.31-.3L76.61,56.55a2.41,2.41,0,0,1,.15-2,3.51,3.51,0,0,1,2.36-1.65,4.5,4.5,0,0,1,1-.1,3.61,3.61,0,0,1,3.5,2.09l19.13,51.77a.5.5,0,0,1-.2.59l-5.26,3.45A.43.43,0,0,1,97,110.75Z"/><path class="cls-4" d="M80.09,53.27a3.16,3.16,0,0,1,3,1.76l19.13,51.77L97,110.25,77.08,56.37c-.48-1.29.48-2.64,2.15-3a4.19,4.19,0,0,1,.86-.09m0-1a4.81,4.81,0,0,0-1.07.12,4,4,0,0,0-2.7,1.89,2.9,2.9,0,0,0-.18,2.44L96.05,110.6a1,1,0,0,0,.63.6.85.85,0,0,0,.31.06,1,1,0,0,0,.55-.17l5.26-3.45a1,1,0,0,0,.39-1.18L84.05,54.69a4.09,4.09,0,0,0-4-2.42Z"/><path class="cls-4" d="M43.75,145.71a.51.51,0,0,1-.31-.11.48.48,0,0,1-.16-.56L76.61,54.86a3.65,3.65,0,0,1,3.49-2.09,4.43,4.43,0,0,1,1,.1,3.51,3.51,0,0,1,2.36,1.65,2.41,2.41,0,0,1,.15,2L52.84,139.72a.45.45,0,0,1-.19.24L44,145.63A.53.53,0,0,1,43.75,145.71Z"/><path class="cls-4" d="M80.1,53.27a4.12,4.12,0,0,1,.86.09c1.67.37,2.63,1.72,2.16,3L52.38,139.54l-8.63,5.67L77.08,55a3.14,3.14,0,0,1,3-1.76m0-1a4.09,4.09,0,0,0-4,2.42L42.81,144.86a1,1,0,0,0,.31,1.13,1,1,0,0,0,.63.22,1,1,0,0,0,.54-.16l8.63-5.67a1,1,0,0,0,.39-.49L84.05,56.72a2.9,2.9,0,0,0-.18-2.44,4,4,0,0,0-2.69-1.89,4.83,4.83,0,0,0-1.08-.12Z"/><path class="cls-4" d="M84.06,116.76a.41.41,0,0,1-.16,0,.45.45,0,0,1-.31-.3l-5.15-13.91a.53.53,0,0,1,.06-.46.49.49,0,0,1,.41-.22h5.92a.49.49,0,0,1,.46.33l4,10.79a.5.5,0,0,1-.19.59l-4.76,3.13A.53.53,0,0,1,84.06,116.76Z"/><path class="cls-4" d="M84.83,102.34l4,10.8-4.75,3.12-5.15-13.92h5.92m0-1H78.91a1,1,0,0,0-.94,1.35l5.15,13.92a1,1,0,0,0,.62.6,1.13,1.13,0,0,0,.32.05,1,1,0,0,0,.54-.16L89.36,114a1,1,0,0,0,.39-1.18l-4-10.79a1,1,0,0,0-.93-.66Z"/><path class="cls-4" d="M64.62,129.77a.51.51,0,0,1-.31-.11.5.5,0,0,1-.16-.56l10-26.93a.48.48,0,0,1,.46-.33h5.92a.49.49,0,0,1,.41.22.53.53,0,0,1,.06.46l-8.06,21.8a.52.52,0,0,1-.2.24l-7.8,5.13A.57.57,0,0,1,64.62,129.77Z"/><path class="cls-4" d="M80.49,102.34l-8.06,21.8-7.81,5.13,9.95-26.93h5.92m0-1H74.57a1,1,0,0,0-.93.66l-10,26.92a1,1,0,0,0,.32,1.13,1,1,0,0,0,.62.22,1,1,0,0,0,.55-.16L73,125a1,1,0,0,0,.39-.49l8.06-21.8a1,1,0,0,0-.94-1.35Z"/><path class="cls-4" d="M119.46,171.56a.49.49,0,0,1-.46-.33l-19.63-53.1a.51.51,0,0,1,.19-.59l5.26-3.45a.57.57,0,0,1,.28-.08l.15,0a.53.53,0,0,1,.32.3l20.9,56.56a.48.48,0,0,1-.06.45.49.49,0,0,1-.41.22Z"/><path class="cls-4" d="M105.1,114.51,126,171.06h-6.54L99.84,118l5.26-3.45m0-1a1,1,0,0,0-.55.16l-5.26,3.46a1,1,0,0,0-.39,1.18l19.63,53.1a1,1,0,0,0,.93.65H126a1,1,0,0,0,.94-1.35L106,114.16a1,1,0,0,0-.63-.6.84.84,0,0,0-.31,0Z"/><path class="cls-4" d="M102.21,165.87a.5.5,0,0,1-.47-.32L86.16,123.41a.51.51,0,0,1,.2-.6l4.76-3.12a.53.53,0,0,1,.27-.08l.16,0a.5.5,0,0,1,.31.31L108.52,165a1.6,1.6,0,0,1,0,.21.56.56,0,0,1-.1.45.52.52,0,0,1-.38.21Z"/><path class="cls-4" d="M91.39,120.11l16.66,45.06a1.42,1.42,0,0,1,0,.2h-5.88L86.63,123.23l4.76-3.12m0-1a1,1,0,0,0-.55.16l-4.76,3.13a1,1,0,0,0-.39,1.18l15.58,42.14a1,1,0,0,0,.94.65h5.88a1,1,0,0,0,1-1.23,2.45,2.45,0,0,0-.09-.32L92.33,119.76a1,1,0,0,0-.63-.6.81.81,0,0,0-.31,0Z"/><path class="cls-4" d="M33.84,172.5a.52.52,0,0,1-.41-.21.5.5,0,0,1,0-.46l5.22-14.15a.48.48,0,0,1,.2-.24l8.63-5.67a.53.53,0,0,1,.27-.08.51.51,0,0,1,.31.11.48.48,0,0,1,.16.56l-7.32,19.81a.5.5,0,0,1-.47.33Z"/><path class="cls-4" d="M47.7,152.19,40.38,172H33.84l5.23-14.15,8.63-5.66m0-1a1,1,0,0,0-.55.16L38.52,157a1.11,1.11,0,0,0-.39.49l-5.22,14.14a1,1,0,0,0,.93,1.35h6.54a1,1,0,0,0,.94-.65l7.32-19.81a1,1,0,0,0-.32-1.13,1,1,0,0,0-.62-.22Z"/><line class="cls-5" x1="153" y1="170.86" x2="154" y2="53"/></g></g></svg>